<svg id="Layer_1" data-name="Layer 1" xmlns="http://www.w3.org/2000/svg" viewBox="0 0 48 48"><title>Alms</title><path d="M28,20a9.965,9.965,0,0,0-7.136,3H27a6.967,6.967,0,0,1,4.69,1.811,2.707,2.707,0,0,1,.265.235A7,7,0,0,1,34,29.945,4.017,4.017,0,0,1,29.99,34H18.838A10,10,0,1,0,28,20Z" id="id_104" class="" fill="#ffffff"></path><path d="M45.65,24.13l-2.98-7.46a5.006,5.006,0,0,0-2.25-2.53l-6.04-3.3a9.969,9.969,0,0,0-7.1-.95L11.97,13.54A3.44,3.44,0,0,1,12,14V28a4.912,4.912,0,0,1-.15,1.22l2.91,1.94a5,5,0,0,0,2.774.84H29.99A2,2,0,0,0,32,30.064a5.029,5.029,0,0,0-1.46-3.6.481.481,0,0,0-.11-.09A4.969,4.969,0,0,0,27,25H20.471a2,2,0,0,1-1.148-.362l-.213-.15a1.491,1.491,0,0,1-.32-2.16A11.988,11.988,0,0,1,40,30a12.146,12.146,0,0,1-.077,1.329l.009.029A3.566,3.566,0,0,0,42.48,32.5,3.529,3.529,0,0,0,46,28.96V25.94A5.066,5.066,0,0,0,45.65,24.13Z" id="id_105" class="" fill="#ffffff"></path><rect x="2" y="11" width="8" height="20" rx="3" id="id_106" class="" fill="#ffffff"></rect></svg>